<?xml version="1.0" encoding="UTF-8" standalone="no"?>
<!-- Created with Inkscape (http://www.inkscape.org/) -->

<svg
   xmlns:dc="http://purl.org/dc/elements/1.1/"
   xmlns:cc="http://creativecommons.org/ns#"
   xmlns:rdf="http://www.w3.org/1999/02/22-rdf-syntax-ns#"
   xmlns:svg="http://www.w3.org/2000/svg"
   xmlns="http://www.w3.org/2000/svg"
   xmlns:sodipodi="http://sodipodi.sourceforge.net/DTD/sodipodi-0.dtd"
   xmlns:inkscape="http://www.inkscape.org/namespaces/inkscape"
   width="75mm"
   height="25.200001mm"
   viewBox="0 0 75.000001 25.2"
   version="1.1"
   id="svg8"
   inkscape:version="0.92.5 (0.92.5+68)"
   sodipodi:docname="thaniya-logo.svg">
  <defs
     id="defs2" />
  <sodipodi:namedview
     id="base"
     pagecolor="#ffffff"
     bordercolor="#666666"
     borderopacity="1.0"
     inkscape:pageopacity="0.0"
     inkscape:pageshadow="2"
     inkscape:zoom="3.959798"
     inkscape:cx="163.942"
     inkscape:cy="79.578309"
     inkscape:document-units="mm"
     inkscape:current-layer="layer1"
     showgrid="false"
     inkscape:window-width="1920"
     inkscape:window-height="1127"
     inkscape:window-x="0"
     inkscape:window-y="24"
     inkscape:window-maximized="1"
     inkscape:pagecheckerboard="true"
     scale-x="1" />
  <metadata
     id="metadata5">
    <rdf:RDF>
      <cc:Work
         rdf:about="">
        <dc:format>image/svg+xml</dc:format>
        <dc:type
           rdf:resource="http://purl.org/dc/dcmitype/StillImage" />
        <dc:title></dc:title>
      </cc:Work>
    </rdf:RDF>
  </metadata>
  <g
     inkscape:label="Layer 1"
     inkscape:groupmode="layer"
     id="layer1"
     transform="translate(0,-271.8)">
    <g
       aria-label="Thaniya"
       style="font-style:normal;font-weight:normal;font-size:5.29166651px;line-height:125%;font-family:sans-serif;text-align:start;letter-spacing:0px;word-spacing:0px;writing-mode:lr-tb;text-anchor:start;fill:#f0f0f0;fill-opacity:1;stroke:none;stroke-width:0.26458332px;stroke-linecap:butt;stroke-linejoin:miter;stroke-opacity:1"
       id="text817">
      <path
         d="m 0.20000001,275.84179 q 0,-0.43462 0.13828889,-0.84949 2.0743334,0.25682 4.7413335,0.25682 2.667,0 5.4920446,-0.51364 -0.276578,1.83727 -2.2916445,1.99531 -1.0470445,0.0988 -2.1138445,0.15805 -0.019756,0.77046 -0.671689,5.334 -0.6321777,4.56353 -0.6321777,6.28226 0,1.69898 0.2765777,2.35091 -1.2248444,-0.43462 -1.7384889,-1.16557 -0.4938889,-0.75072 -0.4938889,-1.778 0,-1.04705 0.5136445,-4.82036 0.5334,-3.79307 0.6124222,-6.10447 -1.7187334,0.0593 -2.9633334,0.0593 -0.86924449,0 -0.86924449,-1.20509 z"
         style="font-style:normal;font-variant:normal;font-weight:normal;font-stretch:normal;font-size:19.75555611px;font-family:Merienda;-inkscape-font-specification:'Merienda, Normal';font-variant-ligatures:normal;font-variant-caps:normal;font-variant-numeric:normal;font-feature-settings:normal;text-align:start;writing-mode:lr-tb;text-anchor:start;fill:#f0f0f0;stroke-width:0.26458332px;fill-opacity:1"
         id="path814"
         inkscape:connector-curvature="0" />
      <path
         d="m 13.870227,284.13912 q 0.651934,-2.23237 1.995311,-3.75355 1.363134,-1.54093 2.548467,-1.54093 1.185333,0 1.679222,0.73095 0.493889,0.7112 0.493889,1.9558 0,1.22485 -0.395111,3.45722 -0.375355,2.23238 -0.375355,3.25967 0,1.00753 0.256822,1.48167 0.256822,0.45437 0.869244,0.79022 -0.256822,0.0197 -0.730955,0.0197 -1.264356,0 -1.876778,-0.51364 -0.592667,-0.5334 -0.592667,-1.79776 0,-0.73095 0.395111,-2.94357 0.395111,-2.23238 0.395111,-3.27943 0,-1.30386 -0.908755,-1.30386 -0.5334,0 -1.185334,0.57291 -0.651933,0.55315 -1.264355,1.52118 -0.592667,0.94826 -1.007534,2.42993 -0.395111,1.46191 -0.395111,2.90407 0,1.4224 0.118534,2.11384 -0.474134,0.0395 -0.5334,0.0395 -0.928511,0 -1.382889,-0.39511 -0.434622,-0.39511 -0.434622,-1.22484 0,-0.84949 0.3556,-3.23991 1.047044,-7.34907 1.047044,-11.16189 0,-1.71874 -0.237067,-2.3114 1.145823,0.41486 1.6002,1.22484 0.474134,0.80998 0.474134,2.23238 0,0.98778 -0.395111,4.14867 -0.375356,3.16088 -0.513645,4.58328 z"
         style="font-style:normal;font-variant:normal;font-weight:normal;font-stretch:normal;font-size:19.75555611px;font-family:Merienda;-inkscape-font-specification:'Merienda, Normal';font-variant-ligatures:normal;font-variant-caps:normal;font-variant-numeric:normal;font-feature-settings:normal;text-align:start;writing-mode:lr-tb;text-anchor:start;fill:#f0f0f0;stroke-width:0.26458332px;fill-opacity:1"
         id="path816"
         inkscape:connector-curvature="0" />
      <path
         d="m 26.594656,282.51917 q -0.572911,0.98778 -0.889,2.03482 -0.296333,1.02729 -0.296333,1.97556 0,0.94826 0.414866,1.61995 0.434622,0.65194 1.224845,0.65194 1.106311,0 2.074333,-1.20509 0.968022,-1.22485 1.481667,-2.94358 0.5334,-1.73849 0.5334,-3.2004 0,-1.48167 -0.118533,-2.42993 0.474133,-0.0395 0.592666,-0.0395 1.679222,0 1.679222,1.71874 0,0.37535 -0.474133,3.06211 -0.474133,2.667 -0.474133,4.28695 0,1.6002 0.612422,2.8448 -1.2446,-0.25682 -1.817511,-1.08655 -0.553156,-0.84949 -0.553156,-2.42993 0,-0.27658 0.07902,-1.0668 -0.533401,1.87677 -1.876778,3.0226 -1.343378,1.14582 -2.647245,1.14582 -1.284111,0 -2.074333,-0.96802 -0.790222,-0.98778 -0.790222,-2.70652 0,-1.73848 0.632177,-3.3782 0.651934,-1.65946 1.936045,-2.86455 1.303867,-1.20509 2.904067,-1.20509 0.691444,0 1.521177,0.27658 -1.165577,0.29633 -2.1336,1.08655 -0.968022,0.79023 -1.540933,1.79776 z"
         style="font-style:normal;font-variant:normal;font-weight:normal;font-stretch:normal;font-size:19.75555611px;font-family:Merienda;-inkscape-font-specification:'Merienda, Normal';font-variant-ligatures:normal;font-variant-caps:normal;font-variant-numeric:normal;font-feature-settings:normal;text-align:start;writing-mode:lr-tb;text-anchor:start;fill:#f0f0f0;stroke-width:0.26458332px;fill-opacity:1"
         id="path818"
         inkscape:connector-curvature="0" />
      <path
         d="m 45.496095,281.64992 q 0,0.90876 -0.395111,3.22016 -0.375356,2.29164 -0.375356,3.33869 0,1.04704 0.256822,1.52118 0.256822,0.45437 0.869245,0.79022 -0.256823,0.0197 -0.730956,0.0197 -1.343378,0 -1.916289,-0.49388 -0.553155,-0.51365 -0.553155,-1.81752 0,-0.73095 0.395111,-2.94357 0.395111,-2.23238 0.395111,-3.27943 0,-1.30386 -0.790222,-1.30386 -1.264356,0 -2.627489,2.23238 -1.343378,2.23237 -1.343378,5.37351 0,1.2446 0.118533,1.93604 -0.513644,0.0395 -0.612422,0.0395 -1.738489,0 -1.738489,-1.69898 0,-0.39511 0.414867,-3.04235 0.414866,-2.64725 0.414866,-4.20793 0,-1.58045 -0.335844,-2.90407 1.165578,0.45438 1.619956,1.30387 0.474133,0.82973 0.474133,1.91628 0,1.0668 -0.237067,2.4892 0.651934,-2.23237 2.034822,-3.75355 1.402645,-1.54093 2.607734,-1.54093 2.054578,0 2.054578,2.80528 z"
         style="font-style:normal;font-variant:normal;font-weight:normal;font-stretch:normal;font-size:19.75555611px;font-family:Merienda;-inkscape-font-specification:'Merienda, Normal';font-variant-ligatures:normal;font-variant-caps:normal;font-variant-numeric:normal;font-feature-settings:normal;text-align:start;writing-mode:lr-tb;text-anchor:start;fill:#f0f0f0;stroke-width:0.26458332px;fill-opacity:1"
         id="path820"
         inkscape:connector-curvature="0" />
      <path
         d="m 51.184768,290.53992 q -1.126066,-0.39511 -1.580444,-1.20508 -0.434623,-0.82974 -0.434623,-1.99532 0,-1.16557 0.316089,-3.33868 0.316089,-2.17312 0.316089,-3.3782 0,-1.20509 -0.118533,-1.85703 0.3556,-0.0395 0.572911,-0.0395 0.889,0 1.284111,0.39511 0.395111,0.39511 0.395111,1.30387 0,0.29633 -0.493889,3.12138 -0.474133,2.80529 -0.493888,4.64255 0,1.81751 0.237066,2.35091 z m 0.296334,-13.76962 q -1.659467,0 -1.659467,-1.12606 0,-0.39512 0.296333,-1.10632 0.434622,-0.079 0.750711,-0.079 1.659467,0 1.659467,1.12607 0,0.39511 -0.296333,1.10631 -0.434623,0.079 -0.750711,0.079 z"
         style="font-style:normal;font-variant:normal;font-weight:normal;font-stretch:normal;font-size:19.75555611px;font-family:Merienda;-inkscape-font-specification:'Merienda, Normal';font-variant-ligatures:normal;font-variant-caps:normal;font-variant-numeric:normal;font-feature-settings:normal;text-align:start;writing-mode:lr-tb;text-anchor:start;fill:#f0f0f0;stroke-width:0.26458332px;fill-opacity:1"
         id="path822"
         inkscape:connector-curvature="0" />
      <path
         d="m 63.281344,280.20777 q 0,0.69144 -0.592667,1.91629 -0.592666,1.22484 -1.442155,2.68675 -0.849489,1.46191 -1.698978,3.12138 -0.849489,1.63971 -1.442156,3.59551 -0.592666,1.97556 -0.592666,3.77331 0,0.889 0.138288,1.69898 -1.264355,-0.29633 -1.718733,-0.889 -0.434622,-0.57291 -0.434622,-1.36313 0,-1.12607 1.382889,-4.28696 -0.296334,-1.22484 -0.730956,-3.83258 -0.434622,-2.62748 -0.889,-4.56353 -0.434622,-1.93604 -1.007533,-2.88431 0.750711,-0.51364 1.284111,-0.51364 1.027289,0 1.402644,1.0668 0.375356,1.04704 0.651934,4.03013 0.296333,2.98309 0.592666,4.38573 3.872089,-7.2898 3.872089,-9.73949 1.224845,0.82974 1.224845,1.79776 z"
         style="font-style:normal;font-variant:normal;font-weight:normal;font-stretch:normal;font-size:19.75555611px;font-family:Merienda;-inkscape-font-specification:'Merienda, Normal';font-variant-ligatures:normal;font-variant-caps:normal;font-variant-numeric:normal;font-feature-settings:normal;text-align:start;writing-mode:lr-tb;text-anchor:start;fill:#f0f0f0;stroke-width:0.26458332px;fill-opacity:1"
         id="path824"
         inkscape:connector-curvature="0" />
      <path
         d="m 68.035021,282.51917 q -0.572911,0.98778 -0.889,2.03482 -0.296334,1.02729 -0.296334,1.97556 0,0.94826 0.414867,1.61995 0.434622,0.65194 1.224845,0.65194 1.106311,0 2.074333,-1.20509 0.968022,-1.22485 1.481667,-2.94358 0.5334,-1.73849 0.5334,-3.2004 0,-1.48167 -0.118534,-2.42993 0.474134,-0.0395 0.592667,-0.0395 1.679222,0 1.679222,1.71874 0,0.37535 -0.474133,3.06211 -0.474133,2.667 -0.474133,4.28695 0,1.6002 0.612422,2.8448 -1.2446,-0.25682 -1.817511,-1.08655 -0.553156,-0.84949 -0.553156,-2.42993 0,-0.27658 0.07902,-1.0668 -0.5334,1.87677 -1.876777,3.0226 -1.343378,1.14582 -2.647245,1.14582 -1.284111,0 -2.074333,-0.96802 -0.790223,-0.98778 -0.790223,-2.70652 0,-1.73848 0.632178,-3.3782 0.651934,-1.65946 1.936045,-2.86455 1.303866,-1.20509 2.904066,-1.20509 0.691445,0 1.521178,0.27658 -1.165578,0.29633 -2.1336,1.08655 -0.968022,0.79023 -1.540933,1.79776 z"
         style="font-style:normal;font-variant:normal;font-weight:normal;font-stretch:normal;font-size:19.75555611px;font-family:Merienda;-inkscape-font-specification:'Merienda, Normal';font-variant-ligatures:normal;font-variant-caps:normal;font-variant-numeric:normal;font-feature-settings:normal;text-align:start;writing-mode:lr-tb;text-anchor:start;fill:#f0f0f0;stroke-width:0.26458332px;fill-opacity:1"
         id="path826"
         inkscape:connector-curvature="0" />
    </g>
  </g>
</svg>
